# xmcd
#
# Track frame offsets:
# 150
# 14591
# 25054
# 38289
# 52478
# 68520
# 79922
# 92288
# 107598
# 118144
# 133643
# 149566
# 163374
# 177013
# 192632
#
# Disc length: 2739 seconds
#
#
# Revision: 0
# Processed by: cddbd v1.5.1PL2 Copyright (c) Steve Scherf et al.
# Submitted via: FreeRIP 2.942 
#
DISCID=cf0ab10f
DTITLE=Riograndense e Caminheiro - Os Populares
DYEAR=1900
DGENRE=Sertanejas
TTITLE0=Boas Festas
TTITLE1=É a Cara do Pai
TTITLE2=A Quem me Deu a Vida
TTITLE3=Prisioneiro de Amor
TTITLE4=Minhas Queixas
TTITLE5=Doce Calvario
TTITLE6=Pedaço de Poema
TTITLE7=O Grande Presente
TTITLE8=Desabafo
TTITLE9=Carreiro Velho
TTITLE10=A Saudade Continua
TTITLE11=Serenata
TTITLE12=Naquele Mesmo Bar
TTITLE13=Jogo Sujo
TTITLE14=Moça Bonita
EXTD=
EXTT0=
EXTT1=
EXTT2=
EXTT3=
EXTT4=
EXTT5=
EXTT6=
EXTT7=
EXTT8=
EXTT9=
EXTT10=
EXTT11=
EXTT12=
EXTT13=
EXTT14=
PLAYORDER=
